<svg xmlns="http://www.w3.org/2000/svg" viewBox="0 0 64 64" width="64" height="64">
  <rect width="64" height="64" rx="10" fill="#0f172a"/>
  <g stroke="#FEC712" stroke-width="3.4" stroke-linecap="round">
    <line x1="32" y1="3" x2="32" y2="10"/>
    <line x1="32" y1="3" x2="32" y2="10" transform="rotate(30 32 32)"/>
    <line x1="32" y1="3" x2="32" y2="10" transform="rotate(60 32 32)"/>
    <line x1="32" y1="3" x2="32" y2="10" transform="rotate(90 32 32)"/>
    <line x1="32" y1="3" x2="32" y2="10" transform="rotate(120 32 32)"/>
    <line x1="32" y1="3" x2="32" y2="10" transform="rotate(150 32 32)"/>
    <line x1="32" y1="3" x2="32" y2="10" transform="rotate(180 32 32)"/>
    <line x1="32" y1="3" x2="32" y2="10" transform="rotate(210 32 32)"/>
    <line x1="32" y1="3" x2="32" y2="10" transform="rotate(240 32 32)"/>
    <line x1="32" y1="3" x2="32" y2="10" transform="rotate(270 32 32)"/>
    <line x1="32" y1="3" x2="32" y2="10" transform="rotate(300 32 32)"/>
    <line x1="32" y1="3" x2="32" y2="10" transform="rotate(330 32 32)"/>
  </g>
  <circle cx="32" cy="32" r="17.5" fill="#FEC712"/>
  <g transform="translate(13.4 13.4) scale(1.16)">
    <polygon points="17.3 4 7 18 16 18 14.7 28 25 14 16 14 17.3 4" fill="#0c3056"/>
  </g>
</svg>
